<?xml version="1.0" standalone="no"?>
<!DOCTYPE svg PUBLIC "-//W3C//DTD SVG 20010904//EN"
 "http://www.w3.org/TR/2001/REC-SVG-20010904/DTD/svg10.dtd">
<svg version="1.0" xmlns="http://www.w3.org/2000/svg"
 width="751.000000pt" height="335.000000pt" viewBox="0 0 751.000000 335.000000"
 preserveAspectRatio="xMidYMid meet">
<metadata>
Created by potrace 1.16, written by Peter Selinger 2001-2019
</metadata>
<g transform="translate(0.000000,335.000000) scale(0.100000,-0.100000)"
fill="#000000" stroke="none">
<path d="M495 2895 c-52 -20 -103 -69 -128 -125 -21 -43 -22 -67 -30 -683 -9
-717 -10 -701 61 -770 71 -69 84 -71 397 -75 313 -4 376 4 489 58 68 32 161
110 206 172 l28 38 28 -41 c73 -106 217 -201 354 -233 205 -49 461 15 593 147
l48 47 65 -58 c121 -112 259 -163 439 -163 141 0 281 43 380 115 52 38 53 38
70 2 35 -74 110 -116 208 -116 78 0 113 14 170 68 59 58 67 98 67 366 0 127 3
255 7 284 9 77 29 88 159 85 65 -2 115 2 140 10 32 11 44 12 69 1 17 -7 81
-14 142 -16 71 -2 109 -7 105 -13 -3 -5 -86 -110 -183 -232 -98 -122 -183
-238 -189 -258 -7 -20 -10 -68 -9 -108 4 -66 7 -74 42 -113 76 -84 83 -85 486
-91 259 -4 368 -2 399 6 46 13 127 79 137 112 6 18 10 17 53 -14 221 -161 542
-164 765 -7 l57 39 16 -34 c23 -50 76 -92 136 -110 64 -19 82 -19 146 0 80 24
129 74 153 158 5 16 9 129 10 251 2 121 4 251 7 289 3 63 6 68 34 83 22 12 58
16 134 15 146 -2 212 30 255 124 20 44 25 137 9 179 -18 49 -89 114 -148 137
-78 30 -242 32 -323 3 -54 -19 -57 -19 -95 -2 -52 23 -147 23 -199 -1 -55 -25
-103 -76 -117 -122 -6 -22 -13 -39 -16 -39 -2 0 -29 22 -59 50 -98 90 -256
149 -396 150 -122 0 -264 -43 -354 -109 -24 -17 -43 -27 -43 -21 0 5 -4 10 -8
10 -5 0 -31 22 -58 48 -35 34 -64 52 -95 60 -27 7 -181 12 -399 13 -305 2
-360 0 -392 -14 -36 -15 -40 -15 -85 6 -66 29 -241 31 -325 3 -54 -18 -59 -18
-100 -1 -48 19 -140 22 -183 5 -54 -20 -97 -62 -122 -117 l-25 -53 -59 53
c-227 206 -599 196 -820 -23 l-66 -65 -74 75 c-118 119 -243 170 -416 170
-114 0 -178 -13 -268 -55 -120 -55 -215 -145 -275 -262 -12 -24 -27 -43 -32
-43 -11 0 -11 -1 28 110 23 67 26 86 22 175 -6 118 -28 182 -93 269 -68 91
-169 159 -288 193 -79 23 -586 29 -642 8z m550 -166 c85 -12 145 -40 203 -93
66 -60 95 -125 100 -221 4 -75 2 -84 -30 -145 -24 -47 -48 -76 -85 -103 l-52
-39 59 -29 c103 -52 167 -145 177 -260 7 -67 -11 -167 -37 -219 -32 -62 -98
-127 -161 -159 -98 -49 -146 -54 -429 -48 -248 6 -255 6 -273 28 -17 21 -18
48 -12 458 10 769 11 803 36 824 19 15 46 17 228 17 113 0 237 -5 276 -11z
m1178 -436 c147 -69 236 -216 237 -389 0 -42 -5 -65 -15 -74 -11 -9 -104 -11
-371 -11 l-357 2 5 -38 c14 -104 103 -215 204 -253 50 -18 74 -21 154 -18 88
3 100 7 166 42 78 42 114 44 134 6 17 -32 4 -56 -49 -90 -90 -57 -153 -74
-276 -74 -122 1 -181 17 -270 76 -252 167 -252 610 1 784 81 56 151 74 269 71
88 -2 108 -6 168 -34z m980 -11 c90 -42 150 -100 192 -186 53 -108 70 -241 35
-276 -19 -19 -29 -19 -376 -13 l-357 6 7 -39 c44 -241 304 -353 534 -228 71
38 88 41 114 17 53 -48 -17 -117 -166 -162 -168 -52 -355 -10 -470 105 -92 92
-136 203 -136 344 0 216 111 382 299 447 56 20 81 23 162 20 82 -3 106 -8 162
-35z m985 1 c29 -21 39 -58 23 -83 -8 -11 -35 -15 -128 -15 -135 0 -183 -16
-246 -79 -60 -60 -67 -100 -67 -411 0 -305 -2 -315 -65 -315 -71 0 -69 -16
-60 459 4 234 11 434 16 443 7 13 22 18 49 18 50 0 74 -31 68 -89 l-3 -39 35
32 c88 79 162 107 273 103 59 -3 85 -9 105 -24z m585 7 c274 0 288 -1 307 -20
11 -11 20 -30 20 -42 0 -15 -101 -149 -285 -378 -156 -195 -284 -358 -285
-362 0 -5 118 -8 263 -8 291 0 298 -1 299 -59 2 -67 1 -67 -465 -54 -268 7
-277 9 -277 60 0 19 78 122 286 382 l287 356 -139 6 c-77 4 -197 7 -268 8
-139 1 -166 10 -166 56 0 45 36 67 100 59 19 -2 164 -4 323 -4z m978 -10 c163
-31 284 -151 324 -322 19 -83 19 -138 -2 -167 l-16 -24 -359 7 -359 6 7 -37
c19 -109 85 -197 182 -245 61 -30 74 -33 162 -33 99 0 110 3 234 72 26 14 33
14 55 2 20 -11 26 -23 26 -49 0 -31 -5 -38 -55 -68 -174 -104 -396 -99 -547
12 -106 78 -168 195 -180 342 -26 323 223 561 528 504z m1029 -11 c25 -6 53
-17 62 -26 21 -19 24 -66 6 -81 -8 -6 -60 -10 -123 -9 -94 1 -117 -2 -161 -22
-61 -26 -106 -71 -131 -126 -15 -34 -18 -82 -23 -338 -6 -335 -3 -325 -85
-317 -46 4 -46 9 -39 460 7 469 6 460 70 460 42 0 64 -30 64 -88 l0 -45 44 41
c92 85 204 117 316 91z m-1724 -617 c-2 -1 -42 -2 -90 0 l-86 3 83 104 82 103
7 -103 c4 -57 5 -105 4 -107z"/>
<path d="M642 2402 l-4 -209 69 -6 c106 -10 314 -8 358 4 101 27 157 102 158
212 1 96 -39 153 -130 187 -47 18 -78 20 -251 20 l-197 0 -3 -208z m386 32
c16 -5 22 -14 22 -35 0 -42 -34 -52 -142 -44 -84 7 -86 8 -90 34 -2 15 -2 33
0 39 4 13 168 17 210 6z"/>
<path d="M640 1943 c0 -65 -3 -182 -7 -260 l-6 -143 224 0 c123 0 241 5 261
10 53 15 119 68 147 119 28 52 38 147 21 211 -15 55 -96 139 -155 159 -27 9
-110 15 -262 18 l-223 5 0 -119z m447 -78 c27 -18 37 -48 29 -91 -10 -53 -43
-64 -186 -64 l-120 0 0 91 0 91 128 -7 c82 -4 135 -11 149 -20z"/>
<path d="M1957 2210 c-75 -19 -142 -67 -181 -129 -23 -35 -61 -139 -55 -145 2
-2 142 -6 312 -10 l307 -6 0 25 c0 42 -38 130 -76 174 -50 58 -120 91 -202 96
-37 2 -84 0 -105 -5z"/>
<path d="M2953 2200 c-115 -24 -222 -132 -240 -242 l-5 -35 173 -6 c96 -4 236
-7 312 -7 l137 0 -6 28 c-26 119 -86 203 -171 240 -58 24 -143 34 -200 22z"/>
<path d="M5557 2156 c-92 -34 -153 -95 -188 -186 -37 -98 -62 -90 291 -90 176
0 310 4 310 9 0 36 -45 143 -76 179 -60 71 -113 95 -213 99 -57 2 -99 -2 -124
-11z"/>
<path d="M5527 1103 c-4 -3 -7 -136 -7 -295 0 -259 2 -289 16 -295 10 -4 22 1
29 10 11 16 15 16 41 2 96 -50 210 -10 255 90 23 50 25 152 4 203 -45 106
-144 143 -257 97 -16 -7 -18 2 -18 94 l0 101 -28 0 c-16 0 -32 -3 -35 -7z
m213 -236 c46 -23 70 -73 70 -144 0 -71 -15 -110 -56 -142 -32 -25 -92 -28
-134 -6 l-30 16 0 124 0 125 33 20 c37 23 81 25 117 7z"/>
<path d="M6075 934 c-100 -23 -107 -26 -100 -53 4 -14 8 -27 9 -28 1 -1 26 5
55 13 93 28 151 0 151 -72 l0 -31 -78 -6 c-44 -2 -93 -12 -110 -21 -60 -31
-80 -112 -42 -173 22 -38 43 -50 97 -59 37 -6 65 3 146 44 4 2 7 -6 7 -17 0
-16 6 -21 26 -21 l25 0 -3 174 c-3 157 -5 176 -23 196 -36 40 -110 65 -160 54z
m125 -267 c0 -35 -6 -49 -30 -72 -25 -24 -39 -29 -81 -30 -44 0 -54 4 -72 27
-23 30 -18 67 13 98 16 16 34 20 95 20 l75 0 0 -43z"/>
<path d="M6355 918 c-3 -7 -4 -101 -3 -208 l3 -195 33 -3 32 -3 0 145 0 145
33 24 c17 14 49 31 70 38 29 10 37 18 35 34 -4 29 -60 24 -106 -9 l-37 -26
-11 32 c-11 34 -40 49 -49 26z"/>
</g>
</svg>
